<svg width="14" height="14" viewBox="0 0 40 40" fill="none" xmlns="http://www.w3.org/2000/svg">
  <path d="M20 40C31.0457 40 40 31.0457 40 20C40 8.9543 31.0457 0 20 0C8.9543 0 0 8.9543 0 20C0 31.0457 8.9543 40 20 40Z" fill="#A1C7E4"/>
  <path d="M23.9543 26.3419C24.1395 26.1271 24.3543 25.853 24.584 25.5345C25.4877 24.253 26.2062 22.8159 26.7099 21.253L26.8432 20.8308L27.2655 20.6974C27.858 20.5122 28.2729 19.9641 28.2729 19.3567V16.3419C28.2729 15.9493 28.1025 15.5789 27.7988 15.3048L27.5173 15.053L27.5247 10.2011C27.5247 10.1863 27.7617 8.09742 26.3247 6.4752C25.0951 5.08261 22.9914 4.37891 20.0803 4.37891C17.1543 4.37891 15.0506 5.09002 13.821 6.49002C12.3766 8.13446 12.6284 10.1789 12.6358 10.2011L12.6432 10.3122V15.053L12.3617 15.3048C12.058 15.5789 11.8877 15.9493 11.8877 16.3419V19.3567C11.8877 19.8308 12.1321 20.2752 12.5395 20.5419L12.8284 20.7271L12.9025 21.0604C13.5988 24.09 15.4358 26.3271 15.458 26.3493L15.6506 26.5863V29.653C15.6506 30.9715 14.9321 32.1789 13.7766 32.8085L7.97656 35.9715C11.0358 38.2752 14.7766 39.7271 18.8432 39.9567C19.221 39.9863 19.5988 40.0011 19.9988 40.0011C20.3914 40.0011 20.7692 39.9863 21.1543 39.9641C25.1543 39.7345 28.8432 38.3345 31.8729 36.09L25.7395 32.9419C24.5099 32.3271 23.7543 31.0974 23.7543 29.7271V26.5789L23.9543 26.3419Z" fill="#4863AE"/>
</svg>