<?xml version="1.0" encoding="UTF-8"?>
<!DOCTYPE svg PUBLIC "-//W3C//DTD SVG 1.1//EN" "http://www.w3.org/Graphics/SVG/1.1/DTD/svg11.dtd">
<svg xmlns="http://www.w3.org/2000/svg" version="1.1" width="200" height="47" viewBox="0 0 2000 471" style="shape-rendering:geometricPrecision; text-rendering:geometricPrecision; image-rendering:optimizeQuality; fill-rule:evenodd; clip-rule:evenodd" xmlns:xlink="http://www.w3.org/1999/xlink">
<g><path style="opacity:0.98" fill="#fefffe" d="M 158.5,6.5 C 173.269,4.95948 183.435,10.9595 189,24.5C 189.5,34.4944 189.666,44.4944 189.5,54.5C 253.833,54.5 318.167,54.5 382.5,54.5C 382.334,44.8276 382.5,35.1609 383,25.5C 387.321,13.6926 395.821,7.35927 408.5,6.5C 421.472,6.89643 429.972,13.2298 434,25.5C 434.5,35.1609 434.666,44.8276 434.5,54.5C 447.504,54.3334 460.504,54.5001 473.5,55C 510.722,61.2248 533.222,82.7248 541,119.5C 541.667,210.5 541.667,301.5 541,392.5C 533.388,432.446 509.554,455.946 469.5,463C 347.167,463.667 224.833,463.667 102.5,463C 61.5405,455.707 37.7072,431.541 31,390.5C 30.3333,300.833 30.3333,211.167 31,121.5C 37.9873,83.1812 60.8207,61.0146 99.5,55C 112.162,54.5001 124.829,54.3334 137.5,54.5C 137.334,45.4938 137.5,36.4938 138,27.5C 140.47,16.1921 147.304,9.19213 158.5,6.5 Z M 110.5,99.5 C 119.5,99.5 128.5,99.5 137.5,99.5C 137.334,106.841 137.5,114.174 138,121.5C 141.505,134.506 150.005,141.172 163.5,141.5C 176.245,141.542 184.745,135.542 189,123.5C 189.5,115.507 189.666,107.507 189.5,99.5C 253.833,99.5 318.167,99.5 382.5,99.5C 382.334,107.174 382.5,114.841 383,122.5C 388.6,137.557 399.433,143.723 415.5,141C 425.026,138.14 431.193,131.974 434,122.5C 434.5,114.841 434.666,107.174 434.5,99.5C 445.877,99.1744 457.21,99.6744 468.5,101C 479.54,104.705 486.373,112.205 489,123.5C 489.5,138.496 489.667,153.496 489.5,168.5C 353.833,168.5 218.167,168.5 82.5,168.5C 82.3334,153.83 82.5001,139.163 83,124.5C 86.3819,109.611 95.5486,101.278 110.5,99.5 Z M 82.5,219.5 C 218.167,219.5 353.833,219.5 489.5,219.5C 489.667,276.168 489.5,332.834 489,389.5C 486.146,403.108 478.313,412.275 465.5,417C 345.833,417.667 226.167,417.667 106.5,417C 92.7551,411.917 84.9218,402.084 83,387.5C 82.5,331.501 82.3333,275.501 82.5,219.5 Z M 275.5,361.5 C 280.974,362.396 283.641,365.729 283.5,371.5C 283.372,377.792 280.372,381.792 274.5,383.5C 269.57,382.681 267.237,379.681 267.5,374.5C 267.79,368.574 270.457,364.241 275.5,361.5 Z M 315.5,361.5 C 325.101,363.684 328.934,369.684 327,379.5C 323.867,384.231 320.034,384.731 315.5,381C 309.073,374.223 309.073,367.723 315.5,361.5 Z"/></g>
<g><path style="opacity:0.972" fill="#fefffe" d="M 803.5,92.5 C 811.571,92.1367 819.571,92.6367 827.5,94C 835.169,96.8344 839.336,102.334 840,110.5C 840.667,177.5 840.667,244.5 840,311.5C 839.332,315.499 837.165,318.332 833.5,320C 821.986,324.934 810.653,324.6 799.5,319C 797.383,317.269 795.883,315.102 795,312.5C 794.667,246.833 794.333,181.167 794,115.5C 792.535,109.347 788.702,107.18 782.5,109C 779.186,112.525 776.52,112.025 774.5,107.5C 782.959,100.104 792.625,95.1043 803.5,92.5 Z"/></g>
<g><path style="opacity:0.972" fill="#fefffe" d="M 1556.5,92.5 C 1564.57,92.1367 1572.57,92.6367 1580.5,94C 1588.17,96.8344 1592.34,102.334 1593,110.5C 1593.67,177.5 1593.67,244.5 1593,311.5C 1592.33,315.499 1590.17,318.332 1586.5,320C 1574.99,324.934 1563.65,324.6 1552.5,319C 1550.38,317.269 1548.88,315.102 1548,312.5C 1547.67,246.833 1547.33,181.167 1547,115.5C 1545.53,109.347 1541.7,107.18 1535.5,109C 1532.19,112.525 1529.52,112.025 1527.5,107.5C 1535.96,100.104 1545.63,95.1043 1556.5,92.5 Z"/></g>
<g><path style="opacity:0.964" fill="#fefffe" d="M 708.5,101.5 C 728.206,98.9805 746.873,102.147 764.5,111C 779.846,122.218 783.346,136.384 775,153.5C 769.389,161.26 761.889,164.093 752.5,162C 749.272,160.437 747.105,157.937 746,154.5C 744.797,145.53 743.797,136.53 743,127.5C 740.077,115.953 732.91,112.12 721.5,116C 708.359,121.141 699.192,130.308 694,143.5C 686.345,163.108 682.012,183.441 681,204.5C 678.855,233.814 680.855,262.814 687,291.5C 690.574,308.504 699.074,322.338 712.5,333C 725.343,340.319 738.676,341.319 752.5,336C 762.399,331.768 770.899,325.602 778,317.5C 780.5,320 783,322.5 785.5,325C 758.234,356.152 724.901,364.818 685.5,351C 661.67,339.865 645.837,321.698 638,296.5C 629.394,268.111 626.394,239.111 629,209.5C 630.847,178.27 641.514,150.603 661,126.5C 674.31,113.263 690.143,104.93 708.5,101.5 Z"/></g>
<g><path style="opacity:0.966" fill="#fefffe" d="M 1441.5,101.5 C 1457.58,100.131 1473.25,101.964 1488.5,107C 1510.21,116.472 1516.37,131.972 1507,153.5C 1499.52,160.93 1491.85,161.264 1484,154.5C 1480.92,145.705 1478.59,136.705 1477,127.5C 1472.52,116.667 1464.68,113.167 1453.5,117C 1446.01,120.497 1441.51,126.33 1440,134.5C 1438.09,144.115 1439.09,153.448 1443,162.5C 1449.87,174.9 1458.2,186.233 1468,196.5C 1483.11,211.273 1497.11,226.94 1510,243.5C 1528.9,271.725 1529.23,300.059 1511,328.5C 1496.96,344.107 1479.46,353.273 1458.5,356C 1436.59,359.551 1416.26,355.551 1397.5,344C 1382.54,332.34 1378.04,317.507 1384,299.5C 1387.18,293.299 1392.18,289.966 1399,289.5C 1403.26,289.296 1406.59,290.963 1409,294.5C 1412.64,305.045 1415.97,315.712 1419,326.5C 1427.13,340.485 1438.96,344.651 1454.5,339C 1462.4,335.057 1467.9,328.891 1471,320.5C 1475.95,305.445 1474.95,290.778 1468,276.5C 1462.78,267.282 1456.78,258.616 1450,250.5C 1432.12,232.965 1416.12,213.965 1402,193.5C 1386.45,166.104 1388.95,140.604 1409.5,117C 1419.06,109.386 1429.73,104.219 1441.5,101.5 Z"/></g>
<g><path style="opacity:0.966" fill="#fefffe" d="M 1810.5,126.5 C 1814.83,126.5 1819.17,126.5 1823.5,126.5C 1823.5,141.167 1823.5,155.833 1823.5,170.5C 1831.17,170.666 1838.84,170.5 1846.5,170C 1850.29,169.84 1853.95,169.174 1857.5,168C 1858.46,166.853 1858.12,165.853 1856.5,165C 1848.78,162.714 1846.61,157.881 1850,150.5C 1857.13,144.659 1863.13,145.659 1868,153.5C 1872.01,167.987 1866.84,177.154 1852.5,181C 1842.84,181.5 1833.17,181.666 1823.5,181.5C 1823.02,220.215 1823.52,258.881 1825,297.5C 1829.74,303.082 1835.24,303.915 1841.5,300C 1844.98,296.701 1847.98,293.034 1850.5,289C 1852.96,288.228 1854.62,289.061 1855.5,291.5C 1845.74,315.888 1827.74,326.054 1801.5,322C 1789,318.833 1781.17,311 1778,298.5C 1777.5,259.501 1777.33,220.501 1777.5,181.5C 1771.83,181.5 1766.17,181.5 1760.5,181.5C 1760.5,177.5 1760.5,173.5 1760.5,169.5C 1787.07,166.595 1803.73,152.262 1810.5,126.5 Z"/></g>
<g><path style="opacity:0.959" fill="#fefffe" d="M 939.5,167.5 C 954.855,166.894 968.022,171.894 979,182.5C 986.906,196.601 984.406,208.434 971.5,218C 951.833,229.667 932.167,241.333 912.5,253C 912.866,271.725 920.866,286.392 936.5,297C 949.5,304.333 962.5,304.333 975.5,297C 979.974,294.027 984.307,290.86 988.5,287.5C 990.167,288.5 991.5,289.833 992.5,291.5C 972.296,317.597 945.963,327.43 913.5,321C 887.42,313.251 871.253,296.085 865,269.5C 858.176,235.975 867.343,207.808 892.5,185C 906.588,174.61 922.254,168.777 939.5,167.5 Z M 930.5,183.5 C 936.579,184.409 940.746,187.743 943,193.5C 946.306,201.318 946.973,209.318 945,217.5C 944.215,219.286 943.049,220.786 941.5,222C 930.753,227.788 920.253,233.955 910,240.5C 909.246,225.454 911.246,210.787 916,196.5C 918.549,189.443 923.382,185.109 930.5,183.5 Z"/></g>
<g><path style="opacity:0.961" fill="#fefffe" d="M 1021.5,167.5 C 1034.75,167.369 1043.92,173.369 1049,185.5C 1052.33,205.493 1055.67,225.493 1059,245.5C 1061.11,259.497 1065.77,272.497 1073,284.5C 1077.04,288.219 1081.2,288.385 1085.5,285C 1092.2,278.104 1096.7,269.938 1099,260.5C 1104.1,241.818 1105.76,222.818 1104,203.5C 1102.75,195.492 1100.42,187.826 1097,180.5C 1095.37,174.109 1097.87,170.276 1104.5,169C 1109.27,167.466 1113.94,167.466 1118.5,169C 1120.04,170.579 1121.21,172.413 1122,174.5C 1126.44,211.191 1122.11,246.858 1109,281.5C 1103.77,294.786 1095.94,306.286 1085.5,316C 1064.58,328.284 1046.75,324.784 1032,305.5C 1020.39,286.434 1013.06,265.767 1010,243.5C 1007.43,225.813 1004.76,208.146 1002,190.5C 999.983,185.076 996.15,183.242 990.5,185C 987.186,188.525 984.52,188.025 982.5,183.5C 993.776,173.855 1006.78,168.522 1021.5,167.5 Z"/></g>
<g><path style="opacity:0.958" fill="#fefffe" d="M 1213.5,167.5 C 1225.2,167.475 1236.2,170.309 1246.5,176C 1258.95,186.554 1260.78,198.721 1252,212.5C 1249.78,215.021 1247.28,217.188 1244.5,219C 1224.92,230.374 1205.42,241.874 1186,253.5C 1186.82,269.98 1193.66,283.48 1206.5,294C 1220.23,303.823 1234.57,304.823 1249.5,297C 1253.97,294.027 1258.31,290.86 1262.5,287.5C 1264.17,288.5 1265.5,289.833 1266.5,291.5C 1246.38,317.818 1220.05,327.652 1187.5,321C 1160.96,313.129 1144.8,295.629 1139,268.5C 1131.48,225.377 1146.98,193.877 1185.5,174C 1194.64,170.344 1203.97,168.177 1213.5,167.5 Z M 1204.5,183.5 C 1211.32,184.815 1215.82,188.815 1218,195.5C 1220.66,203.084 1220.99,210.751 1219,218.5C 1217.13,220.709 1214.96,222.542 1212.5,224C 1202.92,229.374 1193.42,234.874 1184,240.5C 1183.56,226.595 1185.23,212.928 1189,199.5C 1191.29,191.153 1196.46,185.819 1204.5,183.5 Z"/></g>
<g><path style="opacity:0.964" fill="#fefffe" d="M 1302.5,167.5 C 1310.29,167.707 1317.12,170.374 1323,175.5C 1326.92,181.932 1329.26,188.932 1330,196.5C 1336.12,186.711 1343.96,178.544 1353.5,172C 1361.49,167.177 1369.49,166.843 1377.5,171C 1381.52,174.972 1383.52,179.805 1383.5,185.5C 1382.89,192.636 1381.55,199.636 1379.5,206.5C 1377.5,206.5 1375.5,206.5 1373.5,206.5C 1370.9,197.364 1364.9,194.198 1355.5,197C 1345.82,200.257 1337.32,205.423 1330,212.5C 1329.97,246.547 1329.31,280.547 1328,314.5C 1324.28,319.781 1319.11,322.614 1312.5,323C 1302.65,324.633 1293.81,322.466 1286,316.5C 1285.33,315.167 1284.67,313.833 1284,312.5C 1283.67,272.167 1283.33,231.833 1283,191.5C 1281.53,185.347 1277.7,183.18 1271.5,185C 1268.19,188.525 1265.52,188.025 1263.5,183.5C 1274.63,173.461 1287.63,168.128 1302.5,167.5 Z"/></g>
<g><path style="opacity:0.966" fill="#fefffe" d="M 1683.5,167.5 C 1723.4,169.878 1746.24,190.878 1752,230.5C 1755.7,258.382 1748.7,283.049 1731,304.5C 1708.2,324.379 1682.7,328.545 1654.5,317C 1632.71,304.953 1620.21,286.453 1617,261.5C 1612.52,234.411 1618.52,210.078 1635,188.5C 1648.44,175.024 1664.61,168.024 1683.5,167.5 Z M 1682.5,183.5 C 1692.07,184.233 1698.24,189.233 1701,198.5C 1703.1,205.01 1704.44,211.677 1705,218.5C 1705.35,227.01 1705.85,235.51 1706.5,244C 1706.5,260.062 1704.66,275.895 1701,291.5C 1699.04,296.59 1696.21,301.09 1692.5,305C 1681.71,309.53 1673.87,306.363 1669,295.5C 1664.17,279.212 1662,262.546 1662.5,245.5C 1662.39,230.653 1663.89,215.986 1667,201.5C 1668.91,192.437 1674.08,186.437 1682.5,183.5 Z"/></g>
<g><path style="opacity:0.921" fill="#fefffe" d="M 414.5,256.5 C 424.056,255.174 431.889,258.174 438,265.5C 440.05,268.148 441.216,271.148 441.5,274.5C 445.514,274.334 449.514,274.501 453.5,275C 456.418,278.472 456.085,281.472 452.5,284C 430.5,284.667 408.5,284.667 386.5,284C 382.915,281.472 382.582,278.472 385.5,275C 389.486,274.501 393.486,274.334 397.5,274.5C 399.785,265.217 405.452,259.217 414.5,256.5 Z"/></g>
<g><path style="opacity:0.963" fill="#fefffe" d="M 206.5,258.5 C 210.953,258.822 214.953,260.322 218.5,263C 230.362,277.313 232.196,292.813 224,309.5C 219.096,315.141 215.93,321.641 214.5,329C 215.48,338.84 219.98,341.006 228,335.5C 227.492,342.021 223.992,346.188 217.5,348C 207.072,349.898 200.572,345.732 198,335.5C 194.901,323.108 195.734,310.941 200.5,299C 199.809,291.826 196.142,289.493 189.5,292C 187.513,293.319 186.346,295.152 186,297.5C 185.667,305.5 185.333,313.5 185,321.5C 179.831,340.13 180.664,358.464 187.5,376.5C 179.862,390.973 169.362,393.306 156,383.5C 155.837,378.301 156.337,373.134 157.5,368C 157.281,364.986 156.114,362.486 154,360.5C 149.439,362.53 144.939,364.697 140.5,367C 139.167,367.667 137.833,367.667 136.5,367C 134.548,362.818 132.048,358.985 129,355.5C 128.012,352.576 127.346,349.576 127,346.5C 124.766,346.626 122.432,346.293 120,345.5C 119.967,340.242 120.8,335.075 122.5,330C 115.031,307.888 119.364,288.555 135.5,272C 146.833,264.667 158.167,264.667 169.5,272C 172.833,275.333 176.167,278.667 179.5,282C 182.46,284.052 185.293,283.886 188,281.5C 189.624,273.935 193.124,267.435 198.5,262C 201.158,260.522 203.825,259.355 206.5,258.5 Z"/></g>
<g><path style="opacity:0.84" fill="#fefffe" d="M 275.5,260.5 C 276.117,260.611 276.617,260.944 277,261.5C 283.208,278.627 289.708,295.627 296.5,312.5C 303.938,295.29 311.104,277.956 318,260.5C 319.58,263.972 319.913,267.638 319,271.5C 318.258,277.211 317.258,282.878 316,288.5C 312.24,303.042 308.406,317.542 304.5,332C 304.215,335.73 305.715,338.564 309,340.5C 311.883,345.599 314.217,350.933 316,356.5C 330.929,360.021 335.596,369.021 330,383.5C 324.445,388.601 318.612,388.768 312.5,384C 309.317,379.885 307.65,375.219 307.5,370C 309.74,360.551 308.24,351.717 303,343.5C 295.533,338.721 290.533,340.721 288,349.5C 287.241,352.626 286.741,355.793 286.5,359C 289.67,369.848 287.337,379.181 279.5,387C 272.968,389.823 268.135,387.989 265,381.5C 262.562,375.903 262.228,370.237 264,364.5C 268.276,360.112 273.442,357.446 279.5,356.5C 280.254,348.66 283.42,341.994 289,336.5C 289.167,335.167 289.333,333.833 289.5,332.5C 283.169,313.338 277.335,294.004 272,274.5C 271.293,269.326 272.46,264.66 275.5,260.5 Z M 275.5,361.5 C 270.457,364.241 267.79,368.574 267.5,374.5C 267.237,379.681 269.57,382.681 274.5,383.5C 280.372,381.792 283.372,377.792 283.5,371.5C 283.641,365.729 280.974,362.396 275.5,361.5 Z M 315.5,361.5 C 309.073,367.723 309.073,374.223 315.5,381C 320.034,384.731 323.867,384.231 327,379.5C 328.934,369.684 325.101,363.684 315.5,361.5 Z"/></g>
<g><path style="opacity:0.911" fill="#fefffe" d="M 392.5,292.5 C 404.171,292.333 415.838,292.5 427.5,293C 416,304.5 404.5,316 393,327.5C 392.5,315.838 392.333,304.171 392.5,292.5 Z"/></g>
<g><path style="opacity:0.923" fill="#fefffe" d="M 438.5,292.5 C 441.167,292.5 443.833,292.5 446.5,292.5C 446.666,298.509 446.499,304.509 446,310.5C 431.167,325.333 416.333,340.167 401.5,355C 398.518,355.498 395.518,355.665 392.5,355.5C 392.334,349.824 392.501,344.157 393,338.5C 408.368,323.299 423.535,307.965 438.5,292.5 Z"/></g>
<g><path style="opacity:0.915" fill="#fefffe" d="M 444.5,321.5 C 446.478,332.451 447.144,343.784 446.5,355.5C 435.147,355.832 423.814,355.499 412.5,354.5C 423.188,343.479 433.855,332.479 444.5,321.5 Z"/></g>
<g><path style="opacity:0.916" fill="#fefffe" d="M 386.5,363.5 C 408.503,363.333 430.503,363.5 452.5,364C 456.085,366.528 456.418,369.528 453.5,373C 449.514,373.499 445.514,373.666 441.5,373.5C 438.768,384.728 431.601,390.728 420,391.5C 407.864,391.19 400.364,385.19 397.5,373.5C 393.486,373.666 389.486,373.499 385.5,373C 382.636,369.376 382.969,366.209 386.5,363.5 Z"/></g>
<g><path style="opacity:0.862" fill="#fefffe" d="M 747.5,401.5 C 749.167,401.5 750.833,401.5 752.5,401.5C 752.5,415.5 752.5,429.5 752.5,443.5C 750.833,443.5 749.167,443.5 747.5,443.5C 747.5,429.5 747.5,415.5 747.5,401.5 Z"/></g>
<g><path style="opacity:0.747" fill="#fefffe" d="M 781.5,401.5 C 794.457,402.095 794.79,404.095 782.5,407.5C 781.652,409.409 781.318,411.409 781.5,413.5C 785.767,413.203 789.934,413.536 794,414.5C 796.667,421.833 799.333,429.167 802,436.5C 804.667,429.167 807.333,421.833 810,414.5C 811.699,413.594 813.533,413.261 815.5,413.5C 811.764,426.872 806.93,439.872 801,452.5C 797.702,456.165 793.535,457.498 788.5,456.5C 788.215,454.712 788.548,453.045 789.5,451.5C 791.48,452.383 793.48,452.217 795.5,451C 796.961,448.579 798.294,446.079 799.5,443.5C 796.098,434.793 792.598,426.127 789,417.5C 786.619,418.435 784.119,418.768 781.5,418.5C 781.5,426.833 781.5,435.167 781.5,443.5C 779.5,443.5 777.5,443.5 775.5,443.5C 775.5,435.167 775.5,426.833 775.5,418.5C 773.833,418.5 772.167,418.5 770.5,418.5C 770.406,415.459 771.906,413.793 775,413.5C 775.026,408.192 777.193,404.192 781.5,401.5 Z"/></g>
<g><path style="opacity:0.855" fill="#fefffe" d="M 1553.5,401.5 C 1555.17,401.5 1556.83,401.5 1558.5,401.5C 1558.5,415.5 1558.5,429.5 1558.5,443.5C 1556.83,443.5 1555.17,443.5 1553.5,443.5C 1553.5,429.5 1553.5,415.5 1553.5,401.5 Z"/></g>
<g><path style="opacity:0.771" fill="#fefffe" d="M 628.5,403.5 C 633.841,403.121 638.841,404.121 643.5,406.5C 642.754,407.736 642.421,409.07 642.5,410.5C 638.243,409.183 633.91,408.683 629.5,409C 625.556,410.965 624.556,413.965 626.5,418C 630.714,420.274 635.047,422.274 639.5,424C 646.54,431.134 645.874,437.468 637.5,443C 631.844,444.919 626.178,444.919 620.5,443C 619.594,441.301 619.261,439.467 619.5,437.5C 624.071,438.977 628.738,439.477 633.5,439C 637.766,437.634 639.266,434.801 638,430.5C 633.528,427.347 628.694,424.847 623.5,423C 616.953,414.279 618.62,407.779 628.5,403.5 Z"/></g>
<g><path style="opacity:0.709" fill="#fefffe" d="M 650.5,403.5 C 655.667,402.492 657.334,404.325 655.5,409C 653.866,409.494 652.199,409.66 650.5,409.5C 650.5,407.5 650.5,405.5 650.5,403.5 Z"/></g>
<g><path style="opacity:0.729" fill="#fefffe" d="M 760.5,403.5 C 765.123,402.408 766.956,404.075 766,408.5C 761.325,410.334 759.492,408.667 760.5,403.5 Z"/></g>
<g><path style="opacity:0.709" fill="#fefffe" d="M 1248.5,403.5 C 1250.17,403.5 1251.83,403.5 1253.5,403.5C 1253.5,405.5 1253.5,407.5 1253.5,409.5C 1248.07,410.416 1246.41,408.416 1248.5,403.5 Z"/></g>
<g><path style="opacity:0.792" fill="#fefffe" d="M 1416.5,403.5 C 1434.73,403.227 1442.23,412.227 1439,430.5C 1434.58,442.655 1426.08,446.822 1413.5,443C 1405.99,438.992 1402.66,432.658 1403.5,424C 1402.72,413.699 1407.05,406.865 1416.5,403.5 Z M 1417.5,408.5 C 1425.27,407.295 1430.44,410.295 1433,417.5C 1433.84,422.921 1433.51,428.254 1432,433.5C 1426.86,439.886 1420.69,441.052 1413.5,437C 1407.61,429.195 1407.11,421.028 1412,412.5C 1413.81,411.023 1415.65,409.69 1417.5,408.5 Z"/></g>
<g><path style="opacity:0.767" fill="#fefffe" d="M 1531.5,403.5 C 1536.87,402.98 1541.87,403.98 1546.5,406.5C 1545.75,407.736 1545.42,409.07 1545.5,410.5C 1541.24,409.183 1536.91,408.683 1532.5,409C 1528.07,411.331 1527.4,414.498 1530.5,418.5C 1536.37,420.35 1541.54,423.35 1546,427.5C 1549.17,436.659 1546,442.159 1536.5,444C 1531.85,444.689 1527.35,444.189 1523,442.5C 1522.51,440.866 1522.34,439.199 1522.5,437.5C 1525.97,438.242 1529.47,438.909 1533,439.5C 1539.66,439.85 1542.32,436.85 1541,430.5C 1536.03,427.29 1530.87,424.457 1525.5,422C 1520.09,413.289 1522.09,407.123 1531.5,403.5 Z"/></g>
<g><path style="opacity:0.707" fill="#fefffe" d="M 1770.5,403.5 C 1772.17,403.5 1773.83,403.5 1775.5,403.5C 1775.5,405.5 1775.5,407.5 1775.5,409.5C 1770.07,410.416 1768.41,408.416 1770.5,403.5 Z"/></g>
<g><path style="opacity:0.761" fill="#fefffe" d="M 829.5,404.5 C 831.604,404.201 833.604,404.534 835.5,405.5C 838.5,410.833 841.5,416.167 844.5,421.5C 847.824,416.86 850.657,411.86 853,406.5C 855.153,404.556 857.653,404.056 860.5,405C 856.207,412.419 852.04,419.919 848,427.5C 847.501,432.823 847.334,438.156 847.5,443.5C 845.5,443.5 843.5,443.5 841.5,443.5C 841.666,438.156 841.499,432.823 841,427.5C 836.628,420.09 832.795,412.423 829.5,404.5 Z"/></g>
<g><path style="opacity:0.826" fill="#fefffe" d="M 966.5,404.5 C 972.842,404.334 979.175,404.5 985.5,405C 991.469,407.103 993.636,411.27 992,417.5C 990.833,420 989,421.833 986.5,423C 991.39,424.279 993.723,427.446 993.5,432.5C 994.053,436.897 992.386,440.063 988.5,442C 981.254,443.391 973.921,443.891 966.5,443.5C 966.5,430.5 966.5,417.5 966.5,404.5 Z M 971.5,408.5 C 976.622,408.291 981.455,409.291 986,411.5C 987.12,414.999 986.287,417.833 983.5,420C 979.514,420.499 975.514,420.666 971.5,420.5C 971.5,416.5 971.5,412.5 971.5,408.5 Z M 971.5,425.5 C 976.267,425.191 980.934,425.691 985.5,427C 989.155,430.806 988.822,434.473 984.5,438C 980.179,438.499 975.846,438.666 971.5,438.5C 971.5,434.167 971.5,429.833 971.5,425.5 Z"/></g>
<g><path style="opacity:0.78" fill="#fefffe" d="M 1154.5,404.5 C 1160.84,404.334 1167.18,404.5 1173.5,405C 1180.85,407.373 1183.02,412.206 1180,419.5C 1178.79,421.049 1177.29,422.215 1175.5,423C 1182.48,426.169 1184.32,431.336 1181,438.5C 1179.83,439.667 1178.67,440.833 1177.5,442C 1169.92,443.396 1162.25,443.896 1154.5,443.5C 1154.5,430.5 1154.5,417.5 1154.5,404.5 Z M 1160.5,408.5 C 1164.53,408.672 1168.53,409.172 1172.5,410C 1176.49,413.286 1176.49,416.619 1172.5,420C 1168.51,420.499 1164.51,420.666 1160.5,420.5C 1160.5,416.5 1160.5,412.5 1160.5,408.5 Z M 1160.5,425.5 C 1165.27,425.191 1169.93,425.691 1174.5,427C 1177.69,431.51 1177.03,435.176 1172.5,438C 1168.51,438.499 1164.51,438.666 1160.5,438.5C 1160.5,434.167 1160.5,429.833 1160.5,425.5 Z"/></g>
<g><path style="opacity:0.853" fill="#fefffe" d="M 1736.5,404.5 C 1746.17,404.5 1755.83,404.5 1765.5,404.5C 1765.5,406.167 1765.5,407.833 1765.5,409.5C 1761.5,409.5 1757.5,409.5 1753.5,409.5C 1753.5,420.833 1753.5,432.167 1753.5,443.5C 1751.83,443.5 1750.17,443.5 1748.5,443.5C 1748.5,432.167 1748.5,420.833 1748.5,409.5C 1744.5,409.5 1740.5,409.5 1736.5,409.5C 1736.5,407.833 1736.5,406.167 1736.5,404.5 Z"/></g>
<g><path style="opacity:0.764" fill="#fefffe" d="M 1095.5,407.5 C 1096.83,407.5 1098.17,407.5 1099.5,407.5C 1099.5,409.5 1099.5,411.5 1099.5,413.5C 1104.54,413.173 1109.54,413.506 1114.5,414.5C 1117.24,421.873 1120.07,429.206 1123,436.5C 1125.61,428.835 1128.11,421.168 1130.5,413.5C 1132.5,413.5 1134.5,413.5 1136.5,413.5C 1132.11,425.836 1127.61,438.17 1123,450.5C 1119.73,455.947 1114.9,457.947 1108.5,456.5C 1108.5,454.833 1108.5,453.167 1108.5,451.5C 1115.07,452.785 1118.74,449.952 1119.5,443C 1116.15,433.79 1112.65,424.624 1109,415.5C 1108.52,416.448 1108.35,417.448 1108.5,418.5C 1105.5,418.5 1102.5,418.5 1099.5,418.5C 1099.33,424.509 1099.5,430.509 1100,436.5C 1100.37,437.416 1100.87,438.25 1101.5,439C 1103.81,439.497 1106.14,439.663 1108.5,439.5C 1108.84,443.134 1107.18,444.8 1103.5,444.5C 1100.61,444.373 1098.11,443.373 1096,441.5C 1094.57,433.946 1094.07,426.279 1094.5,418.5C 1093.17,418.5 1091.83,418.5 1090.5,418.5C 1092.9,415.352 1094.56,411.685 1095.5,407.5 Z"/></g>
<g><path style="opacity:0.787" fill="#fefffe" d="M 1601.5,407.5 C 1602.83,407.5 1604.17,407.5 1605.5,407.5C 1605.5,409.5 1605.5,411.5 1605.5,413.5C 1608.17,413.5 1610.83,413.5 1613.5,413.5C 1613.5,415.167 1613.5,416.833 1613.5,418.5C 1610.83,418.5 1608.17,418.5 1605.5,418.5C 1605.33,424.842 1605.5,431.175 1606,437.5C 1608.48,439.314 1611.31,439.98 1614.5,439.5C 1614.5,440.833 1614.5,442.167 1614.5,443.5C 1609.33,445.366 1604.83,444.366 1601,440.5C 1600.5,433.174 1600.33,425.841 1600.5,418.5C 1598.83,418.5 1597.17,418.5 1595.5,418.5C 1595.35,417.448 1595.52,416.448 1596,415.5C 1599.73,414.156 1601.56,411.49 1601.5,407.5 Z"/></g>
<g><path style="opacity:0.781" fill="#fefffe" d="M 1664.5,407.5 C 1665.83,407.5 1667.17,407.5 1668.5,407.5C 1668.5,409.5 1668.5,411.5 1668.5,413.5C 1671.5,413.5 1674.5,413.5 1677.5,413.5C 1677.5,415.167 1677.5,416.833 1677.5,418.5C 1674.5,418.5 1671.5,418.5 1668.5,418.5C 1668.33,424.509 1668.5,430.509 1669,436.5C 1669.37,437.416 1669.87,438.25 1670.5,439C 1672.81,439.497 1675.14,439.663 1677.5,439.5C 1677.84,443.134 1676.18,444.8 1672.5,444.5C 1669.61,444.373 1667.11,443.373 1665,441.5C 1663.57,433.946 1663.07,426.279 1663.5,418.5C 1662.17,418.5 1660.83,418.5 1659.5,418.5C 1659.5,417.167 1659.5,415.833 1659.5,414.5C 1663.32,413.91 1664.98,411.577 1664.5,407.5 Z"/></g>
<g><path style="opacity:0.843" fill="#fefffe" d="M 650.5,413.5 C 652.167,413.5 653.833,413.5 655.5,413.5C 655.5,423.5 655.5,433.5 655.5,443.5C 653.833,443.5 652.167,443.5 650.5,443.5C 650.5,433.5 650.5,423.5 650.5,413.5 Z"/></g>
<g><path style="opacity:0.796" fill="#fefffe" d="M 664.5,413.5 C 665.833,413.5 667.167,413.5 668.5,413.5C 668.281,414.675 668.614,415.675 669.5,416.5C 675.635,412.239 681.468,412.572 687,417.5C 688.008,415.741 689.508,414.574 691.5,414C 699.574,411.613 704.407,414.446 706,422.5C 706.5,429.492 706.666,436.492 706.5,443.5C 704.5,443.5 702.5,443.5 700.5,443.5C 700.666,435.826 700.5,428.159 700,420.5C 694.33,416.926 690.33,418.259 688,424.5C 687.5,430.825 687.334,437.158 687.5,443.5C 685.833,443.5 684.167,443.5 682.5,443.5C 682.666,436.159 682.5,428.826 682,421.5C 681.242,419.09 679.575,418.09 677,418.5C 673.183,418.231 670.85,419.898 670,423.5C 669.5,430.158 669.334,436.825 669.5,443.5C 667.833,443.5 666.167,443.5 664.5,443.5C 664.5,433.5 664.5,423.5 664.5,413.5 Z"/></g>
<g><path style="opacity:0.811" fill="#fefffe" d="M 714.5,413.5 C 715.833,413.5 717.167,413.5 718.5,413.5C 718.281,414.675 718.614,415.675 719.5,416.5C 732.553,410.362 739.553,414.529 740.5,429C 739.426,442.783 732.592,446.95 720,441.5C 719.501,446.489 719.334,451.489 719.5,456.5C 717.833,456.5 716.167,456.5 714.5,456.5C 714.5,442.167 714.5,427.833 714.5,413.5 Z M 723.5,418.5 C 725.857,418.337 728.19,418.503 730.5,419C 732.333,419.5 733.5,420.667 734,422.5C 734.667,426.5 734.667,430.5 734,434.5C 730.549,440.353 726.215,441.019 721,436.5C 718.454,429.879 719.287,423.879 723.5,418.5 Z"/></g>
<g><path style="opacity:0.702" fill="#fefffe" d="M 760.5,413.5 C 762.5,413.5 764.5,413.5 766.5,413.5C 766.5,423.5 766.5,433.5 766.5,443.5C 764.5,443.5 762.5,443.5 760.5,443.5C 760.5,433.5 760.5,423.5 760.5,413.5 Z"/></g>
<g><path style="opacity:0.779" fill="#fefffe" d="M 871.5,413.5 C 886.104,412.95 891.937,419.95 889,434.5C 886.347,442.415 880.847,445.581 872.5,444C 868.501,443.332 865.668,441.165 864,437.5C 862,431.5 862,425.5 864,419.5C 866.134,416.847 868.634,414.847 871.5,413.5 Z M 872.5,418.5 C 881.828,417.776 885.661,422.109 884,431.5C 882.787,438.05 878.953,440.55 872.5,439C 865.858,432.059 865.858,425.225 872.5,418.5 Z"/></g>
<g><path style="opacity:0.772" fill="#fefffe" d="M 896.5,413.5 C 898.167,413.5 899.833,413.5 901.5,413.5C 901.334,421.174 901.5,428.841 902,436.5C 907.135,440.957 911.468,440.29 915,434.5C 915.5,427.508 915.666,420.508 915.5,413.5C 917.5,413.5 919.5,413.5 921.5,413.5C 921.5,423.5 921.5,433.5 921.5,443.5C 919.833,443.5 918.167,443.5 916.5,443.5C 916.649,442.448 916.483,441.448 916,440.5C 909.264,446.093 902.931,445.759 897,439.5C 896.5,430.84 896.334,422.173 896.5,413.5 Z"/></g>
<g><path style="opacity:0.796" fill="#fefffe" d="M 929.5,413.5 C 931.167,413.5 932.833,413.5 934.5,413.5C 934.343,414.873 934.51,416.207 935,417.5C 938.439,413.629 942.606,412.629 947.5,414.5C 946.754,415.736 946.421,417.07 946.5,418.5C 941.561,417.352 938.061,419.019 936,423.5C 934.623,430.076 934.123,436.743 934.5,443.5C 932.833,443.5 931.167,443.5 929.5,443.5C 929.5,433.5 929.5,423.5 929.5,413.5 Z"/></g>
<g><path style="opacity:0.749" fill="#fefffe" d="M 1007.5,413.5 C 1020.04,412.216 1025.7,417.882 1024.5,430.5C 1017.83,430.5 1011.17,430.5 1004.5,430.5C 1004.89,436.393 1008.06,439.393 1014,439.5C 1016.64,439.343 1019.14,438.677 1021.5,437.5C 1024.1,439.236 1024.1,441.069 1021.5,443C 1003.68,446.51 996.51,439.343 1000,421.5C 1001.35,417.65 1003.85,414.983 1007.5,413.5 Z M 1011.5,417.5 C 1015.95,418.289 1018.29,420.956 1018.5,425.5C 1013.79,425.827 1009.12,425.493 1004.5,424.5C 1005.91,421.091 1008.24,418.757 1011.5,417.5 Z"/></g>
<g><path style="opacity:0.777" fill="#fefffe" d="M 1036.5,413.5 C 1040.18,413.335 1043.85,413.501 1047.5,414C 1048.93,414.465 1050.1,415.299 1051,416.5C 1052.44,425.392 1052.94,434.392 1052.5,443.5C 1051.17,443.5 1049.83,443.5 1048.5,443.5C 1048.65,442.448 1048.48,441.448 1048,440.5C 1041.93,445.743 1035.93,445.743 1030,440.5C 1027.55,435.676 1028.39,431.509 1032.5,428C 1037.28,425.968 1042.28,425.134 1047.5,425.5C 1047.91,420.972 1045.91,418.306 1041.5,417.5C 1038.83,418.123 1036.33,419.123 1034,420.5C 1030.52,416.778 1031.36,414.444 1036.5,413.5 Z M 1040.5,429.5 C 1042.83,429.5 1045.17,429.5 1047.5,429.5C 1047.69,437.149 1044.02,440.315 1036.5,439C 1034.35,436.925 1034.02,434.592 1035.5,432C 1037.31,431.243 1038.98,430.41 1040.5,429.5 Z"/></g>
<g><path style="opacity:0.811" fill="#fefffe" d="M 1060.5,413.5 C 1062.17,413.5 1063.83,413.5 1065.5,413.5C 1065.33,420.508 1065.5,427.508 1066,434.5C 1066.71,437.95 1068.88,439.616 1072.5,439.5C 1077.07,439.429 1079.57,437.096 1080,432.5C 1080.5,426.175 1080.67,419.842 1080.5,413.5C 1082.17,413.5 1083.83,413.5 1085.5,413.5C 1085.5,423.5 1085.5,433.5 1085.5,443.5C 1083.18,443.771 1081.18,443.104 1079.5,441.5C 1073.39,445.619 1067.56,445.286 1062,440.5C 1060.56,431.608 1060.06,422.608 1060.5,413.5 Z"/></g>
<g><path style="opacity:0.782" fill="#fefffe" d="M 1188.5,413.5 C 1190.5,413.5 1192.5,413.5 1194.5,413.5C 1194.33,421.174 1194.5,428.841 1195,436.5C 1197.98,439.857 1201.48,440.357 1205.5,438C 1206.89,436.829 1207.73,435.329 1208,433.5C 1208.5,426.842 1208.67,420.175 1208.5,413.5C 1210.17,413.5 1211.83,413.5 1213.5,413.5C 1213.5,423.5 1213.5,433.5 1213.5,443.5C 1211.51,443.672 1209.84,443.005 1208.5,441.5C 1202.63,445.455 1196.8,445.455 1191,441.5C 1190.14,439.913 1189.47,438.246 1189,436.5C 1188.5,428.841 1188.33,421.174 1188.5,413.5 Z"/></g>
<g><path style="opacity:0.762" fill="#fefffe" d="M 1226.5,413.5 C 1231.27,413.191 1235.93,413.691 1240.5,415C 1240.97,416.299 1240.97,417.799 1240.5,419.5C 1237.4,419.308 1234.4,418.642 1231.5,417.5C 1229.88,418.154 1228.22,418.654 1226.5,419C 1225.14,420.938 1225.47,422.604 1227.5,424C 1232.53,425.598 1237.03,428.098 1241,431.5C 1243.04,438.449 1240.54,442.616 1233.5,444C 1229.43,444.658 1225.43,444.325 1221.5,443C 1220.24,441.186 1220.24,439.353 1221.5,437.5C 1225.67,439.352 1230,439.852 1234.5,439C 1237.19,436.368 1236.86,434.034 1233.5,432C 1228.97,430.486 1224.8,428.319 1221,425.5C 1219.04,419.532 1220.87,415.532 1226.5,413.5 Z"/></g>
<g><path style="opacity:0.702" fill="#fefffe" d="M 1247.5,413.5 C 1249.5,413.5 1251.5,413.5 1253.5,413.5C 1253.5,423.5 1253.5,433.5 1253.5,443.5C 1251.5,443.5 1249.5,443.5 1247.5,443.5C 1247.5,433.5 1247.5,423.5 1247.5,413.5 Z"/></g>
<g><path style="opacity:0.805" fill="#fefffe" d="M 1261.5,413.5 C 1263.17,413.5 1264.83,413.5 1266.5,413.5C 1266.35,414.552 1266.52,415.552 1267,416.5C 1272.87,412.53 1278.7,412.53 1284.5,416.5C 1285,417.5 1285.5,418.5 1286,419.5C 1286.5,427.493 1286.67,435.493 1286.5,443.5C 1284.83,443.5 1283.17,443.5 1281.5,443.5C 1281.67,436.492 1281.5,429.492 1281,422.5C 1279.98,419.317 1277.82,417.984 1274.5,418.5C 1271.18,417.984 1269.02,419.317 1268,422.5C 1266.71,429.437 1266.21,436.437 1266.5,443.5C 1264.83,443.5 1263.17,443.5 1261.5,443.5C 1261.5,433.5 1261.5,423.5 1261.5,413.5 Z"/></g>
<g><path style="opacity:0.761" fill="#fefffe" d="M 1301.5,413.5 C 1314.14,412.135 1319.8,417.802 1318.5,430.5C 1311.8,430.17 1305.13,430.503 1298.5,431.5C 1299.2,435.037 1301.2,437.537 1304.5,439C 1308.66,439.813 1312.66,439.313 1316.5,437.5C 1317.83,439.167 1317.83,440.833 1316.5,442.5C 1298.86,447.358 1291.36,440.691 1294,422.5C 1295.27,418.405 1297.77,415.405 1301.5,413.5 Z M 1305.5,417.5 C 1310,418.33 1312.33,420.996 1312.5,425.5C 1307.82,425.666 1303.15,425.499 1298.5,425C 1299.69,421.318 1302.02,418.818 1305.5,417.5 Z"/></g>
<g><path style="opacity:0.756" fill="#fefffe" d="M 1329.5,413.5 C 1333.18,413.335 1336.85,413.501 1340.5,414C 1345.36,415.191 1345.53,417.025 1341,419.5C 1337.17,417.474 1333.34,417.307 1329.5,419C 1328.14,420.938 1328.47,422.604 1330.5,424C 1335.53,425.598 1340.03,428.098 1344,431.5C 1346.09,438.413 1343.59,442.58 1336.5,444C 1332.16,444.77 1327.99,444.27 1324,442.5C 1323.2,440.741 1323.37,439.074 1324.5,437.5C 1328.34,439.313 1332.34,439.813 1336.5,439C 1339.99,437.522 1340.33,435.522 1337.5,433C 1332.64,431.055 1328.14,428.555 1324,425.5C 1322.04,419.532 1323.87,415.532 1329.5,413.5 Z"/></g>
<g><path style="opacity:0.749" fill="#fefffe" d="M 1354.5,413.5 C 1359.55,413.337 1364.55,413.671 1369.5,414.5C 1369.71,416.714 1368.88,418.381 1367,419.5C 1363.17,417.474 1359.34,417.307 1355.5,419C 1354.25,420.494 1354.25,421.994 1355.5,423.5C 1360.28,425.365 1364.78,427.698 1369,430.5C 1372.07,437.523 1369.91,442.023 1362.5,444C 1358.03,444.733 1353.7,444.233 1349.5,442.5C 1348.55,440.955 1348.21,439.288 1348.5,437.5C 1353,439.278 1357.67,439.778 1362.5,439C 1365.7,437.321 1366.03,435.321 1363.5,433C 1358.47,431.402 1353.97,428.902 1350,425.5C 1348.03,420.249 1349.53,416.249 1354.5,413.5 Z"/></g>
<g><path style="opacity:0.809" fill="#fefffe" d="M 1446.5,413.5 C 1448.17,413.5 1449.83,413.5 1451.5,413.5C 1451.35,414.552 1451.52,415.552 1452,416.5C 1457.87,412.53 1463.7,412.53 1469.5,416.5C 1470,417.5 1470.5,418.5 1471,419.5C 1471.5,427.493 1471.67,435.493 1471.5,443.5C 1469.83,443.5 1468.17,443.5 1466.5,443.5C 1466.67,436.492 1466.5,429.492 1466,422.5C 1464.98,419.317 1462.82,417.984 1459.5,418.5C 1454.97,418.523 1452.47,420.857 1452,425.5C 1451.5,431.491 1451.33,437.491 1451.5,443.5C 1449.83,443.5 1448.17,443.5 1446.5,443.5C 1446.5,433.5 1446.5,423.5 1446.5,413.5 Z"/></g>
<g><path style="opacity:0.759" fill="#fefffe" d="M 1486.5,413.5 C 1499.11,412.114 1504.78,417.781 1503.5,430.5C 1496.8,430.17 1490.13,430.503 1483.5,431.5C 1484.2,435.037 1486.2,437.537 1489.5,439C 1493.66,439.813 1497.66,439.313 1501.5,437.5C 1502.83,439.167 1502.83,440.833 1501.5,442.5C 1483.35,447.186 1475.85,440.186 1479,421.5C 1480.39,417.678 1482.89,415.011 1486.5,413.5 Z M 1490.5,417.5 C 1495,418.33 1497.33,420.996 1497.5,425.5C 1492.82,425.666 1488.15,425.499 1483.5,425C 1484.69,421.318 1487.02,418.818 1490.5,417.5 Z"/></g>
<g><path style="opacity:0.768" fill="#fefffe" d="M 1574.5,413.5 C 1586.36,411.59 1592.7,416.59 1593.5,428.5C 1591.9,442.461 1584.57,446.961 1571.5,442C 1565.44,435.882 1563.94,428.716 1567,420.5C 1568.74,417.254 1571.24,414.921 1574.5,413.5 Z M 1575.5,418.5 C 1585.91,418.046 1589.74,423.046 1587,433.5C 1585.27,438.617 1581.77,440.45 1576.5,439C 1574.33,438.167 1572.83,436.667 1572,434.5C 1570.52,428.451 1571.69,423.118 1575.5,418.5 Z"/></g>
<g><path style="opacity:0.788" fill="#fefffe" d="M 1639.5,413.5 C 1642.85,413.335 1646.18,413.502 1649.5,414C 1650.93,414.465 1652.1,415.299 1653,416.5C 1654.44,425.392 1654.94,434.392 1654.5,443.5C 1653.17,443.5 1651.83,443.5 1650.5,443.5C 1650.65,442.448 1650.48,441.448 1650,440.5C 1643.93,445.743 1637.93,445.743 1632,440.5C 1629.74,435.714 1630.57,431.547 1634.5,428C 1639.28,425.968 1644.28,425.134 1649.5,425.5C 1650.27,421.818 1648.94,419.318 1645.5,418C 1642.1,417.808 1638.94,418.641 1636,420.5C 1634.98,419.109 1634.15,417.609 1633.5,416C 1635.61,415.155 1637.61,414.322 1639.5,413.5 Z M 1642.5,429.5 C 1644.83,429.5 1647.17,429.5 1649.5,429.5C 1649.73,437.095 1646.07,440.262 1638.5,439C 1636.33,437.135 1635.99,434.969 1637.5,432.5C 1639.14,431.304 1640.81,430.304 1642.5,429.5 Z"/></g>
<g><path style="opacity:0.758" fill="#fefffe" d="M 1702.5,413.5 C 1705.85,413.335 1709.18,413.502 1712.5,414C 1714.29,414.785 1715.79,415.951 1717,417.5C 1718.41,426.084 1718.91,434.75 1718.5,443.5C 1716.83,443.5 1715.17,443.5 1713.5,443.5C 1713.56,439.867 1712.56,439.7 1710.5,443C 1698.37,447.192 1693.2,443.026 1695,430.5C 1700.11,426.596 1705.94,424.929 1712.5,425.5C 1713.3,421.297 1711.63,418.63 1707.5,417.5C 1704.57,418.273 1701.74,419.273 1699,420.5C 1698.36,419.391 1697.86,418.225 1697.5,417C 1698.92,415.377 1700.59,414.21 1702.5,413.5 Z M 1705.5,429.5 C 1707.83,429.5 1710.17,429.5 1712.5,429.5C 1712.88,437.315 1709.21,440.482 1701.5,439C 1699.68,437.534 1699.18,435.701 1700,433.5C 1701.5,431.531 1703.33,430.198 1705.5,429.5 Z"/></g>
<g><path style="opacity:0.843" fill="#fefffe" d="M 1770.5,413.5 C 1772.17,413.5 1773.83,413.5 1775.5,413.5C 1775.5,423.5 1775.5,433.5 1775.5,443.5C 1773.83,443.5 1772.17,443.5 1770.5,443.5C 1770.5,433.5 1770.5,423.5 1770.5,413.5 Z"/></g>
<g><path style="opacity:0.761" fill="#fefffe" d="M 1783.5,413.5 C 1785.17,413.5 1786.83,413.5 1788.5,413.5C 1788.35,414.552 1788.52,415.552 1789,416.5C 1792.68,413.64 1796.85,412.807 1801.5,414C 1803.29,414.785 1804.79,415.951 1806,417.5C 1810.93,413.32 1816.43,412.487 1822.5,415C 1823.89,416.171 1824.73,417.671 1825,419.5C 1825.5,427.493 1825.67,435.493 1825.5,443.5C 1823.83,443.5 1822.17,443.5 1820.5,443.5C 1820.67,436.492 1820.5,429.492 1820,422.5C 1819.7,419.136 1817.87,417.803 1814.5,418.5C 1811.18,417.984 1809.02,419.317 1808,422.5C 1807.5,429.492 1807.33,436.492 1807.5,443.5C 1805.5,443.5 1803.5,443.5 1801.5,443.5C 1801.67,435.826 1801.5,428.159 1801,420.5C 1798.5,418.522 1795.67,418.022 1792.5,419C 1791.3,419.903 1790.47,421.069 1790,422.5C 1789.5,429.492 1789.33,436.492 1789.5,443.5C 1787.5,443.5 1785.5,443.5 1783.5,443.5C 1783.5,433.5 1783.5,423.5 1783.5,413.5 Z"/></g>
<g><path style="opacity:0.762" fill="#fefffe" d="M 1840.5,413.5 C 1853.11,412.114 1858.78,417.781 1857.5,430.5C 1850.8,430.17 1844.13,430.503 1837.5,431.5C 1838.2,435.037 1840.2,437.537 1843.5,439C 1847.66,439.813 1851.66,439.313 1855.5,437.5C 1856.83,439.167 1856.83,440.833 1855.5,442.5C 1837.86,447.358 1830.36,440.691 1833,422.5C 1834.27,418.405 1836.77,415.405 1840.5,413.5 Z M 1844.5,417.5 C 1849,418.33 1851.33,420.996 1851.5,425.5C 1846.82,425.666 1842.15,425.499 1837.5,425C 1838.69,421.318 1841.02,418.818 1844.5,417.5 Z"/></g>
<g><path style="opacity:0.761" fill="#fefffe" d="M 1376.5,436.5 C 1378.5,436.5 1380.5,436.5 1382.5,436.5C 1381.85,440.951 1380.68,445.284 1379,449.5C 1377.64,450.38 1376.14,450.714 1374.5,450.5C 1375.3,445.853 1375.96,441.186 1376.5,436.5 Z"/></g>
<g><path style="opacity:0.685" fill="#fefffe" d="M 1864.5,436.5 C 1869.88,436.452 1871.55,438.952 1869.5,444C 1863.59,444.746 1861.93,442.246 1864.5,436.5 Z"/></g>
</svg>
