<svg width="180" height="128" viewBox="0 0 180 128" fill="none" xmlns="http://www.w3.org/2000/svg">
  <path
    d="M144.824 63.2764C150.488 66.5556 153.812 71.9615 155.148 78.9925C156.498 86.1083 154.797 97.004 150.115 105.049L150.07 105.128C147.673 109.222 144.498 112.567 140.56 114.287C131.751 118.128 108.744 113.944 102.332 114.673C93.0101 115.731 59.2605 118.241 49.1435 113.265C47.6283 112.522 45.9694 111.682 44.2627 110.714L44.0169 110.572C34.3826 105.045 23.3604 95.2699 27.8511 74.1455C30.5644 61.3759 33.6867 50.8533 38.2949 42.9492L38.3257 42.8935C42.7547 35.3173 48.5571 30.1505 56.6866 27.7129C73.3059 22.7294 88.7369 34.1583 93.668 41.0277C98.5999 47.8987 110.978 56.5798 115.656 57.2163C120.336 57.8511 133.737 59.9253 133.737 59.9253C138.022 60.3768 141.625 61.476 144.597 63.148L144.824 63.2756V63.2764Z"
    fill="#F7F7F7" />
  <path
    d="M89.9131 15.638C89.8001 15.5253 89.6659 15.4358 89.5181 15.3748C89.3704 15.3138 89.212 15.2824 89.0521 15.2824C88.8921 15.2824 88.7337 15.3138 88.586 15.3748C88.4382 15.4358 88.304 15.5253 88.191 15.638L85.4403 18.3777L82.6888 15.638C82.5757 15.5254 82.4415 15.4362 82.2938 15.3753C82.1461 15.3144 81.9878 15.2831 81.8279 15.2831C81.505 15.2832 81.1954 15.411 80.9671 15.6384C80.7389 15.8658 80.6107 16.1741 80.6107 16.4956C80.6108 16.8171 80.7392 17.1254 80.9675 17.3527L83.7182 20.0916L80.9675 22.8313C80.8545 22.9438 80.7648 23.0774 80.7037 23.2244C80.6425 23.3715 80.611 23.5291 80.611 23.6882C80.611 23.8474 80.6425 24.005 80.7037 24.152C80.7648 24.2991 80.8545 24.4327 80.9675 24.5452C81.0805 24.6577 81.2147 24.747 81.3624 24.8079C81.5101 24.8688 81.6683 24.9002 81.8282 24.9002C81.988 24.9002 82.1463 24.8688 82.294 24.8079C82.4416 24.747 82.5758 24.6577 82.6888 24.5452L85.4403 21.8055L88.191 24.5452C88.304 24.6578 88.4382 24.7471 88.5859 24.8081C88.7336 24.869 88.8919 24.9004 89.0518 24.9004C89.2117 24.9005 89.37 24.8692 89.5177 24.8083C89.6654 24.7474 89.7996 24.6581 89.9127 24.5456C90.0258 24.4331 90.1155 24.2994 90.1767 24.1524C90.2379 24.0053 90.2695 23.8477 90.2695 23.6885C90.2695 23.5293 90.2381 23.3717 90.1769 23.2246C90.1158 23.0775 90.0261 22.9439 89.9131 22.8313L87.1616 20.0916L89.9131 17.3527C90.1413 17.1252 90.2695 16.8168 90.2695 16.4953C90.2695 16.1738 90.1413 15.8654 89.9131 15.638ZM44.3755 21.0301C44.3285 20.9832 44.2726 20.946 44.211 20.9207C44.1495 20.8953 44.0836 20.8822 44.017 20.8822C43.9504 20.8822 43.8845 20.8953 43.823 20.9207C43.7614 20.946 43.7055 20.9832 43.6585 21.0301L42.5123 22.1714L41.3661 21.0301C41.3196 20.9809 41.2636 20.9416 41.2016 20.9143C41.1395 20.8871 41.0726 20.8725 41.0047 20.8714C40.9369 20.8704 40.8696 20.8829 40.8067 20.9083C40.7438 20.9336 40.6867 20.9713 40.6387 21.019C40.5907 21.0668 40.5528 21.1236 40.5273 21.1862C40.5018 21.2488 40.4891 21.3158 40.4901 21.3833C40.491 21.4509 40.5056 21.5175 40.5329 21.5794C40.5602 21.6412 40.5997 21.6969 40.649 21.7433L41.7944 22.8854L40.649 24.0267C40.5996 24.073 40.5601 24.1287 40.5327 24.1905C40.5053 24.2523 40.4907 24.3189 40.4897 24.3864C40.4886 24.454 40.5012 24.521 40.5267 24.5836C40.5521 24.6462 40.5899 24.7031 40.6379 24.7509C40.6858 24.7987 40.7429 24.8364 40.8058 24.8618C40.8686 24.8873 40.9359 24.8999 41.0038 24.8989C41.0716 24.898 41.1385 24.8835 41.2006 24.8563C41.2627 24.8291 41.3187 24.7898 41.3653 24.7407L42.5123 23.5994L43.6576 24.7407C43.7046 24.7879 43.7605 24.8253 43.8222 24.8509C43.8838 24.8765 43.9498 24.8896 44.0166 24.8896C44.0833 24.8896 44.1494 24.8765 44.211 24.8509C44.2726 24.8253 44.3285 24.7879 44.3755 24.7407C44.4704 24.646 44.5237 24.5178 44.5237 24.3841C44.5237 24.2504 44.4704 24.1221 44.3755 24.0275L43.2293 22.8854L44.3755 21.7441C44.4226 21.6972 44.46 21.6416 44.4855 21.5803C44.511 21.5191 44.5241 21.4534 44.5241 21.3871C44.5241 21.3208 44.511 21.2552 44.4855 21.1939C44.46 21.1326 44.4226 21.077 44.3755 21.0301ZM131.301 21.0301C131.206 20.9359 131.077 20.883 130.943 20.883C130.809 20.883 130.68 20.9359 130.585 21.0301L129.438 22.1714L128.292 21.0301C128.246 20.9809 128.19 20.9416 128.128 20.9143C128.066 20.8871 127.999 20.8725 127.931 20.8714C127.863 20.8704 127.796 20.8829 127.733 20.9083C127.67 20.9336 127.613 20.9713 127.565 21.019C127.517 21.0668 127.479 21.1236 127.453 21.1862C127.428 21.2488 127.415 21.3158 127.416 21.3833C127.417 21.4509 127.432 21.5175 127.459 21.5794C127.486 21.6412 127.526 21.6969 127.575 21.7433L128.721 22.8854L127.575 24.0267C127.526 24.073 127.486 24.1287 127.459 24.1905C127.431 24.2523 127.417 24.3189 127.416 24.3864C127.415 24.454 127.427 24.521 127.453 24.5836C127.478 24.6462 127.516 24.7031 127.564 24.7509C127.612 24.7987 127.669 24.8364 127.732 24.8618C127.795 24.8873 127.862 24.8999 127.93 24.8989C127.998 24.898 128.065 24.8835 128.127 24.8563C128.189 24.8291 128.245 24.7898 128.291 24.7407L129.438 23.5994L130.584 24.7407C130.631 24.7877 130.687 24.8251 130.749 24.8506C130.81 24.8761 130.876 24.8892 130.943 24.8892C131.01 24.8892 131.076 24.8761 131.137 24.8506C131.199 24.8251 131.255 24.7877 131.302 24.7407C131.396 24.646 131.45 24.5178 131.45 24.3841C131.45 24.2504 131.396 24.1221 131.302 24.0275L130.155 22.8854L131.302 21.7441C131.349 21.6972 131.386 21.6416 131.411 21.5803C131.437 21.5191 131.45 21.4534 131.45 21.3871C131.45 21.3208 131.437 21.2552 131.411 21.1939C131.386 21.1326 131.349 21.077 131.302 21.0301H131.301ZM67.687 11.4428C67.6305 11.3865 67.5634 11.3419 67.4896 11.3114C67.4157 11.2809 67.3366 11.2652 67.2567 11.2652C67.1768 11.2652 67.0976 11.2809 67.0238 11.3114C66.9499 11.3419 66.8828 11.3865 66.8263 11.4428L65.4506 12.8118L64.074 11.4428C64.0183 11.3833 63.9512 11.3356 63.8766 11.3024C63.8019 11.2693 63.7214 11.2515 63.6397 11.2501C63.558 11.2487 63.4768 11.2636 63.4011 11.2941C63.3253 11.3246 63.2565 11.3699 63.1988 11.4274C63.141 11.4849 63.0954 11.5535 63.0648 11.6289C63.0342 11.7043 63.0192 11.7851 63.0207 11.8665C63.0221 11.9478 63.04 12.028 63.0732 12.1023C63.1065 12.1766 63.1544 12.2435 63.2142 12.299L64.5891 13.6696L63.215 15.0395C63.1552 15.0949 63.1073 15.1618 63.074 15.2361C63.0408 15.3104 63.0229 15.3906 63.0215 15.472C63.02 15.5533 63.0351 15.6341 63.0657 15.7095C63.0963 15.7849 63.1418 15.8535 63.1996 15.911C63.2573 15.9685 63.3262 16.0139 63.4019 16.0443C63.4777 16.0748 63.5588 16.0898 63.6405 16.0883C63.7222 16.0869 63.8027 16.0691 63.8774 16.036C63.952 16.0029 64.0192 15.9551 64.0749 15.8956L65.4506 14.5266L66.8255 15.8956C66.8819 15.9522 66.949 15.9971 67.023 16.0278C67.0969 16.0585 67.1762 16.0743 67.2563 16.0743C67.3364 16.0743 67.4156 16.0585 67.4896 16.0278C67.5635 15.9971 67.6306 15.9522 67.687 15.8956C67.8009 15.782 67.8649 15.6281 67.8649 15.4675C67.8649 15.307 67.8009 15.153 67.687 15.0395L66.3104 13.6696L67.687 12.3006C67.7437 12.2443 67.7886 12.1775 67.8193 12.1039C67.8499 12.0303 67.8657 11.9514 67.8657 11.8717C67.8657 11.792 67.8499 11.7131 67.8193 11.6395C67.7886 11.5659 67.7437 11.4991 67.687 11.4428ZM30.0892 92.8962C30.0327 92.8398 29.9655 92.795 29.8916 92.7645C29.8177 92.734 29.7385 92.7182 29.6584 92.7182C29.5784 92.7182 29.4992 92.734 29.4253 92.7645C29.3514 92.795 29.2842 92.8398 29.2277 92.8962L27.8528 94.2652L26.4762 92.8962C26.4201 92.8384 26.3529 92.7923 26.2787 92.7605C26.2044 92.7288 26.1246 92.7122 26.0438 92.7115C25.963 92.7108 25.8829 92.7262 25.8082 92.7567C25.7334 92.7872 25.6655 92.8322 25.6084 92.8891C25.5513 92.946 25.5062 93.0137 25.4756 93.0881C25.4451 93.1626 25.4297 93.2424 25.4305 93.3228C25.4312 93.4032 25.448 93.4827 25.4799 93.5566C25.5119 93.6305 25.5582 93.6973 25.6164 93.7532L26.9913 95.123L25.6164 96.4937C25.5566 96.5491 25.5086 96.616 25.4754 96.6903C25.4421 96.7646 25.4243 96.8448 25.4228 96.9262C25.4214 97.0075 25.4364 97.0883 25.467 97.1637C25.4976 97.2392 25.5431 97.3077 25.6009 97.3652C25.6587 97.4227 25.7275 97.4681 25.8033 97.4985C25.879 97.529 25.9602 97.544 26.0418 97.5425C26.1235 97.5411 26.2041 97.5233 26.2787 97.4902C26.3533 97.4571 26.4205 97.4093 26.4762 97.3498L27.8528 95.98L29.2269 97.349C29.2833 97.4056 29.3504 97.4505 29.4243 97.4812C29.4982 97.5119 29.5775 97.5277 29.6576 97.5277C29.7377 97.5277 29.817 97.5119 29.8909 97.4812C29.9649 97.4505 30.032 97.4056 30.0884 97.349C30.2023 97.2354 30.2663 97.0815 30.2663 96.9209C30.2663 96.7604 30.2023 96.6064 30.0884 96.4929L28.7118 95.1222L30.0884 93.7532C30.145 93.6969 30.19 93.63 30.2206 93.5564C30.2513 93.4829 30.2671 93.404 30.2671 93.3243C30.2671 93.2446 30.2513 93.1657 30.2206 93.0921C30.19 93.0185 30.145 92.9517 30.0884 92.8954V92.8962H30.0892Z"
    fill="#CCCCCC" />
  <path
    d="M22.6146 57.1232C22.5581 57.0669 22.491 57.0223 22.4172 56.9918C22.3433 56.9613 22.2642 56.9456 22.1843 56.9456C22.1043 56.9456 22.0252 56.9613 21.9514 56.9918C21.8775 57.0223 21.8104 57.0669 21.7539 57.1232L20.3782 58.4922L19.0016 57.1232C18.9455 57.0654 18.8783 57.0193 18.8041 56.9875C18.7299 56.9558 18.65 56.9392 18.5692 56.9385C18.4885 56.9378 18.4084 56.9532 18.3336 56.9837C18.2589 57.0142 18.1909 57.0592 18.1339 57.1161C18.0768 57.173 18.0316 57.2407 18.0011 57.3151C17.9705 57.3896 17.9551 57.4694 17.9559 57.5498C17.9566 57.6302 17.9734 57.7097 18.0054 57.7836C18.0373 57.8575 18.0837 57.9243 18.1418 57.9802L19.5167 59.35L18.1426 60.7207C18.0828 60.7761 18.0349 60.843 18.0016 60.9173C17.9684 60.9916 17.9505 61.0718 17.9491 61.1532C17.9476 61.2345 17.9627 61.3153 17.9933 61.3907C18.0239 61.4662 18.0694 61.5347 18.1272 61.5922C18.1849 61.6497 18.2538 61.6951 18.3295 61.7255C18.4053 61.756 18.4864 61.771 18.5681 61.7695C18.6498 61.7681 18.7303 61.7503 18.805 61.7172C18.8796 61.6841 18.9468 61.6363 19.0025 61.5768L20.3782 60.2078L21.7531 61.576C21.8095 61.6326 21.8766 61.6776 21.9506 61.7082C22.0245 61.7389 22.1038 61.7547 22.1839 61.7547C22.264 61.7547 22.3432 61.7389 22.4172 61.7082C22.4911 61.6776 22.5582 61.6326 22.6146 61.576C22.7285 61.4624 22.7925 61.3085 22.7925 61.1479C22.7925 60.9874 22.7285 60.8334 22.6146 60.7199L21.238 59.35L22.6146 57.981C22.6713 57.9247 22.7162 57.8579 22.7469 57.7843C22.7775 57.7107 22.7933 57.6318 22.7933 57.5521C22.7933 57.4724 22.7775 57.3935 22.7469 57.3199C22.7162 57.2463 22.6713 57.1795 22.6146 57.1232ZM166.687 57.1232C166.63 57.0668 166.563 57.022 166.489 56.9915C166.415 56.961 166.336 56.9452 166.256 56.9452C166.176 56.9452 166.097 56.961 166.023 56.9915C165.949 57.022 165.882 57.0668 165.825 57.1232L164.451 58.4922L163.074 57.1232C163.018 57.0654 162.951 57.0193 162.876 56.9875C162.802 56.9558 162.722 56.9392 162.642 56.9385C162.561 56.9378 162.481 56.9532 162.406 56.9837C162.331 57.0142 162.263 57.0592 162.206 57.1161C162.149 57.173 162.104 57.2407 162.073 57.3151C162.043 57.3896 162.027 57.4694 162.028 57.5498C162.029 57.6302 162.046 57.7097 162.078 57.7836C162.11 57.8575 162.156 57.9243 162.214 57.9802L163.589 59.35L162.214 60.7207C162.156 60.7766 162.11 60.8434 162.078 60.9174C162.046 60.9913 162.029 61.0708 162.029 61.1512C162.028 61.2316 162.043 61.3114 162.074 61.3858C162.105 61.4603 162.15 61.5279 162.207 61.5847C162.264 61.6416 162.332 61.6865 162.407 61.717C162.482 61.7474 162.562 61.7627 162.643 61.7619C162.723 61.7612 162.803 61.7444 162.877 61.7127C162.952 61.6809 163.019 61.6347 163.075 61.5768L164.451 60.2078L165.825 61.576C165.881 61.6326 165.948 61.6776 166.022 61.7082C166.096 61.7389 166.175 61.7547 166.255 61.7547C166.335 61.7547 166.415 61.7389 166.489 61.7082C166.563 61.6776 166.63 61.6326 166.686 61.576C166.8 61.4624 166.864 61.3085 166.864 61.1479C166.864 60.9874 166.8 60.8334 166.686 60.7199L165.31 59.3492L166.686 57.9802C166.743 57.9239 166.788 57.857 166.818 57.7835C166.849 57.7099 166.865 57.631 166.865 57.5513C166.865 57.4716 166.849 57.3927 166.818 57.3191C166.788 57.2455 166.743 57.1787 166.686 57.1224V57.1232H166.687Z"
    fill="#CCCCCC" fill-opacity="0.5" />
  <path
    d="M111.15 11.4428C111.036 11.3294 110.882 11.2656 110.721 11.2656C110.559 11.2656 110.405 11.3294 110.291 11.4428L108.915 12.8118L107.538 11.4428C107.483 11.3833 107.415 11.3356 107.341 11.3024C107.266 11.2693 107.186 11.2515 107.104 11.2501C107.022 11.2487 106.941 11.2636 106.865 11.2941C106.79 11.3246 106.721 11.3699 106.663 11.4274C106.605 11.4849 106.56 11.5535 106.529 11.6289C106.499 11.7043 106.483 11.7851 106.485 11.8665C106.486 11.9478 106.504 12.028 106.537 12.1023C106.571 12.1766 106.619 12.2435 106.678 12.299L108.053 13.6696L106.678 15.0395C106.62 15.0954 106.574 15.1622 106.542 15.2362C106.51 15.3101 106.494 15.3896 106.493 15.47C106.492 15.5504 106.508 15.6302 106.538 15.7046C106.569 15.7791 106.614 15.8467 106.671 15.9035C106.728 15.9604 106.796 16.0053 106.871 16.0357C106.946 16.0662 107.026 16.0815 107.107 16.0807C107.188 16.08 107.267 16.0632 107.342 16.0315C107.416 15.9997 107.483 15.9535 107.539 15.8956L108.915 14.5266L110.289 15.8956C110.345 15.9522 110.412 15.9971 110.486 16.0278C110.56 16.0585 110.64 16.0743 110.72 16.0743C110.8 16.0743 110.879 16.0585 110.953 16.0278C111.027 15.9971 111.094 15.9522 111.15 15.8956C111.264 15.782 111.328 15.6281 111.328 15.4675C111.328 15.307 111.264 15.153 111.15 15.0395L109.774 13.6688L111.15 12.2998C111.207 12.2435 111.252 12.1766 111.283 12.1031C111.313 12.0295 111.329 11.9506 111.329 11.8709C111.329 11.7912 111.313 11.7123 111.283 11.6387C111.252 11.5651 111.207 11.4983 111.15 11.442V11.4428ZM15.252 80.4836C15.1579 80.3897 15.046 80.3152 14.9229 80.2644C14.7998 80.2135 14.6678 80.1874 14.5346 80.1874C14.4013 80.1874 14.2693 80.2135 14.1462 80.2644C14.0231 80.3152 13.9112 80.3897 13.8171 80.4836L11.5255 82.7645L9.23313 80.482C9.13886 80.3881 9.02694 80.3136 8.90376 80.2628C8.78059 80.212 8.64857 80.1859 8.51525 80.1859C8.38192 80.1859 8.2499 80.212 8.12673 80.2628C8.00355 80.3136 7.89163 80.3881 7.79736 80.482C7.70308 80.5758 7.6283 80.6873 7.57728 80.8099C7.52626 80.9326 7.5 81.064 7.5 81.1968C7.5 81.3295 7.52626 81.461 7.57728 81.5836C7.6283 81.7063 7.70308 81.8177 7.79736 81.9116L10.0897 84.1941L7.79898 86.4767C7.70471 86.5705 7.62991 86.6819 7.57887 86.8045C7.52783 86.9271 7.50154 87.0585 7.5015 87.1912C7.50147 87.3239 7.52768 87.4553 7.57865 87.578C7.62962 87.7006 7.70435 87.812 7.79858 87.9059C7.8928 87.9998 8.00466 88.0742 8.12779 88.1251C8.25092 88.1759 8.38289 88.202 8.51618 88.2021C8.64946 88.2021 8.78145 88.176 8.90461 88.1253C9.02776 88.0745 9.13967 88.0001 9.23395 87.9063L11.5255 85.6229L13.8171 87.9055C13.911 87.9999 14.0229 88.0748 14.1461 88.126C14.2693 88.1771 14.4015 88.2034 14.535 88.2034C14.6684 88.2034 14.8006 88.1771 14.9238 88.126C15.0471 88.0748 15.1589 87.9999 15.2528 87.9055C15.3471 87.8117 15.422 87.7003 15.473 87.5778C15.5241 87.4552 15.5503 87.3238 15.5503 87.1911C15.5503 87.0584 15.5241 86.927 15.473 86.8044C15.422 86.6818 15.3471 86.5704 15.2528 86.4767L12.9605 84.1941L15.2528 81.9116C15.3471 81.8178 15.422 81.7065 15.473 81.5839C15.5241 81.4613 15.5503 81.3299 15.5503 81.1972C15.5503 81.0645 15.5241 80.9331 15.473 80.8105C15.422 80.6879 15.3471 80.5766 15.2528 80.4828L15.252 80.4836ZM142.421 72.4697C142.327 72.3759 142.215 72.3015 142.092 72.2507C141.969 72.2 141.837 72.1739 141.704 72.1739C141.571 72.1739 141.439 72.2 141.316 72.2507C141.193 72.3015 141.081 72.3759 140.987 72.4697L138.695 74.7506L136.402 72.468C136.309 72.372 136.197 72.2955 136.073 72.2429C135.949 72.1903 135.816 72.1628 135.682 72.1618C135.547 72.1609 135.414 72.1865 135.29 72.2373C135.165 72.2881 135.052 72.3631 134.957 72.4577C134.862 72.5524 134.787 72.665 134.736 72.7889C134.685 72.9128 134.659 73.0455 134.66 73.1795C134.661 73.3134 134.688 73.4457 134.741 73.5689C134.794 73.692 134.871 73.8035 134.967 73.8969L137.26 76.1794L134.967 78.4619C134.777 78.6515 134.67 78.9086 134.67 79.1766C134.67 79.4447 134.777 79.7017 134.968 79.8911C135.158 80.0806 135.416 80.187 135.685 80.1869C135.955 80.1869 136.213 80.0803 136.403 79.8907L138.695 77.6082L140.987 79.8907C141.081 79.9852 141.193 80.0601 141.316 80.1112C141.439 80.1624 141.571 80.1887 141.705 80.1887C141.838 80.1887 141.971 80.1624 142.094 80.1112C142.217 80.0601 142.329 79.9852 142.423 79.8907C142.517 79.797 142.592 79.6855 142.643 79.5629C142.694 79.4402 142.721 79.3087 142.721 79.1759C142.721 79.0431 142.694 78.9116 142.643 78.789C142.592 78.6663 142.517 78.5549 142.423 78.4611L140.13 76.1802L142.422 73.8977C142.516 73.8039 142.591 73.6925 142.642 73.5698C142.694 73.4471 142.72 73.3157 142.72 73.1829C142.72 73.0501 142.694 72.9186 142.642 72.7959C142.591 72.6732 142.516 72.5618 142.422 72.468V72.4697H142.421ZM172.202 80.4836C172.108 80.3898 171.996 80.3154 171.873 80.2647C171.75 80.2139 171.618 80.1878 171.485 80.1878C171.351 80.1878 171.22 80.2139 171.097 80.2647C170.974 80.3154 170.862 80.3898 170.768 80.4836L168.475 82.7645L166.183 80.482C166.089 80.3881 165.977 80.3136 165.853 80.2628C165.73 80.212 165.598 80.1859 165.465 80.1859C165.332 80.1859 165.2 80.212 165.076 80.2628C164.953 80.3136 164.841 80.3881 164.747 80.482C164.653 80.5758 164.578 80.6873 164.527 80.8099C164.476 80.9326 164.45 81.064 164.45 81.1968C164.45 81.3295 164.476 81.461 164.527 81.5836C164.578 81.7063 164.653 81.8177 164.747 81.9116L167.04 84.1933L164.748 86.4759C164.557 86.6653 164.45 86.9224 164.45 87.1904C164.45 87.4584 164.557 87.7155 164.747 87.9051C164.938 88.0947 165.196 88.2012 165.465 88.2013C165.734 88.2014 165.992 88.0949 166.183 87.9055L168.475 85.6221L170.768 87.9047C170.862 87.999 170.973 88.0738 171.096 88.1249C171.22 88.1759 171.352 88.2022 171.485 88.2022C171.618 88.2022 171.751 88.1759 171.874 88.1249C171.997 88.0738 172.109 87.999 172.203 87.9047C172.297 87.8109 172.372 87.6995 172.423 87.577C172.474 87.4544 172.5 87.323 172.5 87.1903C172.5 87.0576 172.474 86.9262 172.423 86.8036C172.372 86.681 172.297 86.5696 172.203 86.4759L169.91 84.1941L172.203 81.9116C172.297 81.8178 172.372 81.7065 172.423 81.5839C172.474 81.4613 172.5 81.3299 172.5 81.1972C172.5 81.0645 172.474 80.9331 172.423 80.8105C172.372 80.6879 172.297 80.5766 172.203 80.4828L172.202 80.4836ZM21.5946 43.5211H32.0676C32.5626 43.5207 33.0372 43.3248 33.3873 42.9764C33.7373 42.628 33.9343 42.1555 33.935 41.6626C33.9345 41.1696 33.7377 40.697 33.3876 40.3484C33.0375 39.9998 32.5627 39.8038 32.0676 39.8033H21.5954C21.1003 39.8038 20.6256 39.9998 20.2755 40.3484C19.9254 40.697 19.7285 41.1696 19.7281 41.6626C19.7287 42.1553 19.9256 42.6277 20.2755 42.9761C20.6254 43.3245 21.0998 43.5205 21.5946 43.5211ZM21.5946 40.9147H32.0676C32.2608 40.9237 32.4431 41.0064 32.5766 41.1456C32.7102 41.2849 32.7847 41.4701 32.7847 41.6626C32.7847 41.8552 32.7102 42.0403 32.5766 42.1796C32.4431 42.3189 32.2608 42.4016 32.0676 42.4106H21.5954C21.4022 42.4016 21.2199 42.3189 21.0864 42.1796C20.9529 42.0403 20.8784 41.8552 20.8784 41.6626C20.8784 41.4701 20.9529 41.2849 21.0864 41.1456C21.2199 41.0064 21.4022 40.9237 21.5954 40.9147H21.5946ZM137.116 52.1901H151.08C151.74 52.1893 152.373 51.9278 152.84 51.4631C153.306 50.9984 153.568 50.3684 153.569 49.7113C153.568 49.0542 153.306 48.4242 152.84 47.9595C152.373 47.4948 151.74 47.2333 151.08 47.2325H137.117C136.457 47.2331 135.824 47.4946 135.357 47.9595C134.89 48.4244 134.628 49.0547 134.627 49.7121C134.628 50.3692 134.891 50.9991 135.358 51.4637C135.824 51.9282 136.457 52.1895 137.117 52.1901H137.116ZM137.116 48.7138H151.08C151.339 48.7242 151.584 48.8338 151.763 49.0197C151.943 49.2057 152.043 49.4535 152.043 49.7113C152.043 49.9691 151.943 50.2169 151.763 50.4029C151.584 50.5888 151.339 50.6984 151.08 50.7088H137.117C136.858 50.6984 136.614 50.5888 136.434 50.4029C136.255 50.2169 136.155 49.9691 136.155 49.7113C136.155 49.4535 136.255 49.2057 136.434 49.0197C136.614 48.8338 136.858 48.7242 137.117 48.7138H137.116ZM19.8498 115.609H33.8133C34.4733 115.609 35.1062 115.347 35.5729 114.883C36.0396 114.418 36.3021 113.788 36.3028 113.131C36.3021 112.473 36.0396 111.843 35.5729 111.378C35.1062 110.914 34.4733 110.652 33.8133 110.652H19.8498C19.1896 110.652 18.5566 110.914 18.0898 111.379C17.6231 111.844 17.3607 112.474 17.3603 113.131C17.3611 113.788 17.6237 114.418 18.0904 114.883C18.5571 115.347 19.1898 115.609 19.8498 115.609ZM19.8498 112.133H33.8133C34.072 112.143 34.3167 112.253 34.496 112.439C34.6754 112.625 34.7756 112.873 34.7756 113.131C34.7756 113.388 34.6754 113.636 34.496 113.822C34.3167 114.008 34.072 114.118 33.8133 114.128H19.8498C19.591 114.118 19.3464 114.008 19.167 113.822C18.9876 113.636 18.8875 113.388 18.8875 113.131C18.8875 112.873 18.9876 112.625 19.167 112.439C19.3464 112.253 19.591 112.143 19.8498 112.133ZM133.383 103.028H143.855C144.35 103.027 144.825 102.831 145.175 102.483C145.525 102.134 145.722 101.662 145.723 101.169C145.722 100.676 145.525 100.204 145.175 99.8552C144.825 99.5068 144.351 99.3107 143.856 99.3101H133.383C132.888 99.3105 132.414 99.5064 132.063 99.8549C131.713 100.203 131.516 100.676 131.516 101.169C131.516 101.662 131.713 102.134 132.063 102.483C132.413 102.831 132.888 103.027 133.383 103.028ZM133.383 100.421H143.855C144.048 100.43 144.231 100.512 144.364 100.652C144.498 100.791 144.572 100.976 144.572 101.169C144.572 101.361 144.498 101.546 144.364 101.686C144.231 101.825 144.048 101.908 143.855 101.917H133.383C133.19 101.908 133.008 101.825 132.874 101.686C132.741 101.546 132.666 101.361 132.666 101.169C132.666 100.976 132.741 100.791 132.874 100.652C133.008 100.512 133.19 100.43 133.383 100.421ZM108.335 27.0208H118.807C119.302 27.0203 119.777 26.8244 120.127 26.476C120.477 26.1276 120.674 25.6551 120.674 25.1623C120.674 24.6693 120.477 24.1966 120.127 23.848C119.777 23.4994 119.302 23.3034 118.807 23.303H108.336C107.841 23.3034 107.366 23.4994 107.016 23.848C106.666 24.1966 106.469 24.6693 106.468 25.1623C106.469 25.6551 106.666 26.1276 107.016 26.476C107.366 26.8244 107.841 27.0203 108.336 27.0208H108.335ZM108.335 24.4144H118.807C118.999 24.4252 119.179 24.5087 119.311 24.6477C119.443 24.7867 119.516 24.9707 119.516 25.1619C119.516 25.3531 119.443 25.537 119.311 25.676C119.179 25.815 118.999 25.8985 118.807 25.9094H108.336C108.144 25.8985 107.964 25.815 107.832 25.676C107.7 25.537 107.626 25.3531 107.626 25.1619C107.626 24.9707 107.7 24.7867 107.832 24.6477C107.964 24.5087 108.144 24.4252 108.336 24.4144H108.335Z"
    fill="#CCCCCC" />
  <path
    d="M116.008 39.5195H54.9977C53.6471 39.521 52.3523 40.0559 51.3973 41.0068C50.4423 41.9577 49.9051 43.247 49.9036 44.5918V102.275C49.9053 103.62 50.4425 104.909 51.3975 105.86C52.3525 106.81 53.6472 107.345 54.9977 107.347H116.008C117.358 107.345 118.653 106.81 119.608 105.86C120.563 104.909 121.1 103.62 121.102 102.275V44.5927C121.1 43.2476 120.563 41.9579 119.608 41.0068C118.653 40.0557 117.358 39.5208 116.007 39.5195H116.008ZM116.008 105.264H54.9977C53.3429 105.264 51.9964 103.923 51.9964 102.276V58.9914H55.3668C55.6443 58.9914 55.9105 58.8816 56.1067 58.6862C56.303 58.4908 56.4132 58.2258 56.4132 57.9495C56.4132 57.6731 56.303 57.4081 56.1067 57.2127C55.9105 57.0173 55.6443 56.9075 55.3668 56.9075H51.9964V44.5927C51.9964 42.945 53.3429 41.6042 54.9977 41.6042H116.008C117.662 41.6042 119.009 42.945 119.009 44.5927V56.9083H59.8996C59.6221 56.9083 59.356 57.0181 59.1597 57.2135C58.9635 57.4089 58.8532 57.6739 58.8532 57.9503C58.8532 58.2266 58.9635 58.4916 59.1597 58.687C59.356 58.8824 59.6221 58.9922 59.8996 58.9922H119.007V102.275C119.007 103.923 117.661 105.263 116.006 105.263L116.008 105.264Z"
    fill="#808080" />
  <path
    d="M75.6812 52.7961H95.3245C96.2527 52.795 97.1426 52.4274 97.7989 51.7738C98.4553 51.1203 98.8245 50.2343 98.8255 49.3101C98.8245 48.3858 98.4553 47.4996 97.799 46.846C97.1427 46.1923 96.2528 45.8245 95.3245 45.8232H75.6812C74.7528 45.8243 73.8627 46.192 73.2062 46.8457C72.5497 47.4994 72.1804 48.3856 72.1793 49.3101C72.1804 50.2344 72.5497 51.1206 73.2062 51.7741C73.8627 52.4277 74.7528 52.7952 75.6812 52.7961ZM75.6812 47.9071H95.3245C96.1008 47.9071 96.7327 48.5363 96.7327 49.3101C96.7327 50.083 96.1008 50.7122 95.3245 50.7122H75.6812C75.3078 50.7118 74.9499 50.5639 74.6859 50.3011C74.4219 50.0382 74.2734 49.6818 74.273 49.3101C74.273 48.5363 74.9041 47.9071 75.6812 47.9071ZM65.2049 52.7961C66.1332 52.7952 67.0233 52.4277 67.6798 51.7741C68.3363 51.1206 68.7056 50.2344 68.7067 49.3101C68.7056 48.3856 68.3363 47.4994 67.6799 46.8457C67.0234 46.192 66.1333 45.8243 65.2049 45.8232C64.2766 45.8245 63.3867 46.1923 62.7304 46.846C62.0741 47.4996 61.7049 48.3858 61.7039 49.3101C61.7049 50.2343 62.0741 51.1203 62.7305 51.7738C63.3868 52.4274 64.2767 52.795 65.2049 52.7961ZM65.2049 47.9071C65.982 47.9071 66.6139 48.5363 66.6139 49.3101C66.6139 50.083 65.982 50.7122 65.2049 50.7122C64.8315 50.7118 64.4736 50.5639 64.2096 50.3011C63.9456 50.0382 63.7971 49.6818 63.7967 49.3101C63.7967 48.5363 64.4294 47.9071 65.2049 47.9071ZM106.027 52.7961C106.955 52.795 107.845 52.4274 108.502 51.7738C109.158 51.1203 109.527 50.2343 109.528 49.3101C109.527 48.3856 109.158 47.4994 108.501 46.8457C107.845 46.192 106.955 45.8243 106.026 45.8232C105.098 45.8243 104.208 46.192 103.551 46.8457C102.895 47.4994 102.526 48.3856 102.524 49.3101C102.526 50.2344 102.895 51.1206 103.551 51.7741C104.208 52.4277 105.098 52.7952 106.026 52.7961H106.027ZM106.027 47.9071C106.803 47.9071 107.435 48.5363 107.435 49.3101C107.435 50.083 106.803 50.7122 106.026 50.7122C105.653 50.7118 105.295 50.5639 105.031 50.3011C104.767 50.0383 104.618 49.6819 104.617 49.3101C104.617 48.5363 105.25 47.9071 106.026 47.9071H106.027ZM90.5475 86.1118H80.4582C80.2207 86.1118 79.9929 86.2057 79.8249 86.3729C79.657 86.5402 79.5626 86.767 79.5626 87.0035C79.5626 87.24 79.657 87.4668 79.8249 87.634C79.9929 87.8012 80.2207 87.8952 80.4582 87.8952H90.5475C90.785 87.8952 91.0128 87.8012 91.1808 87.634C91.3487 87.4668 91.4431 87.24 91.4431 87.0035C91.4431 86.767 91.3487 86.5402 91.1808 86.3729C91.0128 86.2057 90.785 86.1118 90.5475 86.1118Z"
    fill="#808080" />
  <path
    d="M77.4186 78.0156C78.6026 78.0156 79.5625 77.0598 79.5625 75.8808C79.5625 74.7018 78.6026 73.7461 77.4186 73.7461C76.2345 73.7461 75.2747 74.7018 75.2747 75.8808C75.2747 77.0598 76.2345 78.0156 77.4186 78.0156Z"
    fill="#808080" />
  <path
    d="M93.5858 78.0156C94.7699 78.0156 95.7298 77.0598 95.7298 75.8808C95.7298 74.7018 94.7699 73.7461 93.5858 73.7461C92.4018 73.7461 91.4419 74.7018 91.4419 75.8808C91.4419 77.0598 92.4018 78.0156 93.5858 78.0156Z"
    fill="#808080" />
</svg>
